#!OML:ASF H:\MichaelJackson\Top Level 1\Subject 1\Session 1\male.ASF
:FULLY-SPECIFIED
:DEGREES
102
root 7.41261 16.666 -26.7174 4.34337 10.4231 -4.00877
lowerback 0.456904 2.21089 0.987586
upperback -1.44581 2.99574 1.85252
thorax -1.78644 1.49922 1.28482
lowerneck -10.3917 -4.94245 2.41934
upperneck -0.816939 -6.85977 0.949629
head 1.43888 -3.39307 -0.401399
rclavicle 5.62188e-015 -2.78299e-015
rhumerus -42.8787 0.0467803 -72.5221
rradius 50.7973
rwrist -2.79153
rhand -17.597 -13.0469
rfingers 7.12502
rthumb 8.65924 -42.8493
lclavicle 5.62188e-015 -2.78299e-015
lhumerus -47.0839 -7.74686 93.3408
lradius 48.4895
lwrist 16.0883
lhand 7.29072 8.64452
lfingers 7.12502
lthumb 32.5524 35.7381
rfemur -31.3987 -9.86455 8.27869
rtibia 72.9826
rfoot 13.5955 20.1935
rtoes -9.13401
lfemur -27.5991 -4.82182 -10.428
ltibia 39.4993
lfoot -18.7426 -2.81779
ltoes 15.9255
103
root 7.44943 16.683 -26.6981 3.72635 10.8077 -3.68498
lowerback 1.07787 1.97631 0.590622
upperback -1.19022 2.68334 1.89526
thorax -1.88776 1.34802 1.53864
lowerneck -10.4598 -4.92423 2.36605
upperneck -0.714847 -6.83288 0.920058
head 1.48527 -3.37885 -0.405206
rclavicle 2.21769e-014 -2.76311e-014
rhumerus -42.8547 0.298152 -71.5966
rradius 50.7095
rwrist -1.6945
rhand -18.6097 -13.5435
rfingers 7.12502
rthumb 7.68192 -43.384
lclavicle 2.21769e-014 -2.76311e-014
lhumerus -47.0891 -8.41949 93.5721
lradius 48.7876
lwrist 16.0762
lhand 7.63846 9.00616
lfingers 7.12502
lthumb 32.8832 36.0309
rfemur -33.8811 -8.54883 6.50272
rtibia 77.2746
rfoot 20.088 21.3439
rtoes 0.193009
lfemur -26.6291 -4.19081 -11.1339
ltibia 38.9419
lfoot -18.4774 -4.10428
ltoes 18.1554
104
root 7.4807 16.6998 -26.6804 3.05753 11.2509 -3.40478
lowerback 1.74297 1.71615 0.223355
upperback -0.908648 2.3333 1.94318
thorax -1.98062 1.17723 1.78674
lowerneck -10.5196 -4.89935 2.30611
upperneck -0.637012 -6.7955 0.889381
head 1.52262 -3.35988 -0.406987
rclavicle -3.18987e-014 6.75868e-015
rhumerus -42.8185 0.587873 -70.7335
rradius 50.6196
rwrist -0.187473
rhand -19.7597 -14.1802
rfingers 7.12502
rthumb 6.57181 -44.0582
lclavicle -3.18987e-014 6.75868e-015
lhumerus -47.0297 -9.15572 93.7695
lradius 49.0241
lwrist 15.8966
lhand 7.91671 9.19471
lfingers 7.12502
lthumb 33.1478 36.1636
rfemur -36.3496 -7.22561 4.69996
rtibia 81.4554
rfoot 25.651 21.87
rtoes 8.35655
lfemur -25.6374 -3.5721 -11.7669
ltibia 38.3965
lfoot -18.1391 -5.38233
ltoes 20.434
105
root 7.50739 16.716 -26.6637 2.34371 11.7465 -3.18445
lowerback 2.43894 1.4333 -0.0857469
upperback -0.608894 1.95064 1.9953
thorax -2.06419 0.988967 2.01336
lowerneck -10.5747 -4.86925 2.23874
upperneck -0.566399 -6.7499 0.857557
head 1.55714 -3.33705 -0.407206
rclavicle 6.32756e-014 -1.45113e-014
rhumerus -42.7859 0.906303 -69.9322
rradius 50.5414
rwrist 1.69115
rhand -20.9676 -14.9555
rfingers 7.12502
rthumb 5.40564 -44.8666
lclavicle 6.32756e-014 -1.45113e-014
lhumerus -46.8966 -9.9278 93.9199
lradius 49.1758
lwrist 15.577
lhand 8.14593 9.19064
lfingers 7.12502
lthumb 33.3658 36.113
rfemur -38.7965 -5.94606 2.8957
rtibia 85.4624
rfoot 30.0824 22.0711
rtoes 14.5481
lfemur -24.6351 -2.99249 -12.3095
ltibia 37.8786
lfoot -17.749 -6.60423
ltoes 22.6896
106
root 7.53062 16.7313 -26.6477 1.59258 12.283 -3.03397
lowerback 3.15315 1.13213 -0.317021
upperback -0.297715 1.54298 2.05108
thorax -2.13833 0.786902 2.20754
lowerneck -10.6307 -4.8356 2.16485
upperneck -0.487372 -6.69874 0.822634
head 1.59477 -3.31149 -0.407235
rclavicle -1.05232e-014 -1.78906e-015
rhumerus -42.7698 1.23965 -69.1841
rradius 50.4904
rwrist 3.87067
rhand -22.1336 -15.8497
rfingers 7.12502
rthumb 4.27979 -45.7864
lclavicle -1.05232e-014 -1.78906e-015
lhumerus -46.6826 -10.7064 94.0168
lradius 49.2289
lwrist 15.1652
lhand 8.32967 9.00768
lfingers 7.12502
lthumb 33.5404 35.8923
rfemur -41.2156 -4.75181 1.11259
rtibia 89.2151
rfoot 33.361 22.0951
rtoes 18.775
lfemur -23.6313 -2.46527 -12.7543
ltibia 37.3992
lfoot -17.3285 -7.73592
ltoes 24.8613
107
root 7.55157 16.7458 -26.6325 0.812276 12.8457 -2.95445
lowerback 3.87725 0.817147 -0.461631
upperback 0.019162 1.11831 2.10965
thorax -2.20532 0.57511 2.36349
lowerneck -10.693 -4.7993 2.08621
upperneck -0.388333 -6.64368 0.781821
head 1.64015 -3.28395 -0.408716
rclavicle 9.25591e-015 -7.35503e-015
rhumerus -42.7786 1.57405 -68.4765
rradius 50.4844
rwrist 6.24771
rhand -23.1596 -16.8199
rfingers 7.12502
rthumb 3.28899 -46.7742
lclavicle 9.25591e-015 -7.35503e-015
lhumerus -46.3833 -11.4606 94.0591
lradius 49.18
lwrist 14.7183
lhand 8.45407 8.68941
lfingers 7.12502
lthumb 33.6586 35.5483
rfemur -43.5997 -3.67521 -0.629932
rtibia 92.6155
rfoot 35.558 21.9629
rtoes 21.3361
lfemur -22.6317 -1.99436 -13.105
ltibia 36.9607
lfoot -16.8928 -8.75642
ltoes 26.8944
108
root 7.57131 16.7601 -26.6182 0.00874727 13.4189 -2.93972
lowerback 4.60807 0.492888 -0.522147
upperback 0.33863 0.684386 2.17073
thorax -2.26839 0.357757 2.48212
lowerneck -10.7664 -4.76056 2.0047
upperneck -0.264148 -6.58519 0.732526
head 1.69567 -3.2547 -0.413028
rclavicle -9.08197e-015 -1.25234e-014
rhumerus -42.8158 1.89828 -67.7943
rradius 50.5435
rwrist 8.69156
rhand -23.9587 -17.7994
rfingers 7.12502
rthumb 2.51724 -47.7643
lclavicle -9.08197e-015 -1.25234e-014
lhumerus -45.9973 -12.159 94.0498
lradius 49.0329
lwrist 14.286
lhand 8.50209 8.28893
lfingers 7.12502
lthumb 33.7043 35.1379
rfemur -45.9343 -2.73893 -2.3104
rtibia 95.5526
rfoot 36.7894 21.6096
rtoes 22.5949
lfemur -21.6348 -1.57652 -13.3735
ltibia 36.5555
lfoot -16.4496 -9.65664
ltoes 28.7425
